<?xml version="1.0" encoding="iso-8859-1"?>
<!-- Generator: Adobe Illustrator 19.0.0, SVG Export Plug-In . SVG Version: 6.00 Build 0)  -->
<svg version="1.1" id="Capa_1" xmlns="http://www.w3.org/2000/svg" xmlns:xlink="http://www.w3.org/1999/xlink" x="0px" y="0px"
	 viewBox="0 0 480 480" style="enable-background:new 0 0 480 480;" xml:space="preserve">
<g>
	<g>
		<path d="M456,368h-32c-2.122,0-4.156,0.844-5.656,2.344L408,380.688l-10.344-10.344c-1.5-1.5-3.534-2.344-5.656-2.344h-32
			c-13.255,0-24,10.745-24,24v64c0,13.255,10.745,24,24,24h96c13.255,0,24-10.745,24-24v-64C480,378.745,469.255,368,456,368z
			 M464,456c0,4.418-3.582,8-8,8h-96c-4.418,0-8-3.582-8-8v-64c0-4.418,3.582-8,8-8h28.688L400,395.312V416h16v-20.688L427.312,384
			H456c4.418,0,8,3.582,8,8V456z"/>
	</g>
</g>
<g>
	<g>
		<path d="M120,368H88c-2.122,0-4.156,0.844-5.656,2.344L72,380.688l-10.344-10.344c-1.5-1.5-3.534-2.344-5.656-2.344H24
			c-13.255,0-24,10.745-24,24v64c0,13.255,10.745,24,24,24h96c13.255,0,24-10.745,24-24v-64C144,378.745,133.255,368,120,368z
			 M128,456c0,4.418-3.582,8-8,8H24c-4.418,0-8-3.582-8-8v-64c0-4.418,3.582-8,8-8h28.688L64,395.312V416h16v-20.688L91.312,384H120
			c4.418,0,8,3.582,8,8V456z"/>
	</g>
</g>
<g>
	<g>
		<path d="M240,0c-26.51,0-48,21.49-48,48s21.49,48,48,48c26.499-0.026,47.974-21.501,48-48C288,21.49,266.51,0,240,0z M240,80
			c-17.673,0-32-14.327-32-32s14.327-32,32-32c17.673,0,32,14.327,32,32S257.673,80,240,80z"/>
	</g>
</g>
<g>
	<g>
		<path d="M455.329,304.049c-3.405-20.143-19.186-35.924-39.329-39.329V240c0-4.418-3.582-8-8-8H248v-16h40
			c13.255,0,24-10.745,24-24v-64c0-13.255-10.745-24-24-24h-96c-13.255,0-24,10.745-24,24v64c0,13.255,10.745,24,24,24h40v16H72
			c-4.418,0-8,3.582-8,8v24.72c-26.139,4.418-43.747,29.19-39.329,55.329c4.418,26.139,29.19,43.747,55.329,39.329
			c26.139-4.418,43.747-29.19,39.329-55.329c-3.405-20.143-19.186-35.924-39.329-39.329V248h152v16.72
			c-26.139,4.418-43.747,29.19-39.329,55.329c4.418,26.139,29.19,43.747,55.329,39.329c26.139-4.418,43.747-29.19,39.329-55.329
			c-3.405-20.143-19.186-35.924-39.329-39.329V248h152v16.72c-26.139,4.418-43.747,29.19-39.329,55.329
			c4.418,26.139,29.19,43.747,55.329,39.329C442.139,354.959,459.747,330.188,455.329,304.049z M104,312c0,17.673-14.327,32-32,32
			s-32-14.327-32-32c0-17.673,14.327-32,32-32S104,294.327,104,312z M249.056,120l-7.712,11.56c-0.877,1.315-1.344,2.86-1.344,4.44
			c0.002,0.521,0.055,1.041,0.16,1.552l7.152,35.816l-7.312,7.32l-7.312-7.32l7.152-35.768c0.108-0.526,0.161-1.063,0.16-1.6
			c-0.003-1.575-0.47-3.114-1.344-4.424L230.944,120H249.056z M272,312c0,17.673-14.327,32-32,32c-17.673,0-32-14.327-32-32
			c0-17.673,14.327-32,32-32C257.673,280,272,294.327,272,312z M192,200c-4.418,0-8-3.582-8-8v-64c0-4.418,3.582-8,8-8h19.72
			l11.784,17.68l-7.344,36.72c-0.516,2.614,0.302,5.313,2.184,7.2l16,16c3.124,3.123,8.188,3.123,11.312,0l16-16
			c1.882-1.887,2.7-4.586,2.184-7.2l-7.344-36.752L268.28,120H288c4.418,0,8,3.582,8,8v64c0,4.418-3.582,8-8,8H192z M408,344
			c-17.673,0-32-14.327-32-32c0-17.673,14.327-32,32-32c17.673,0,32,14.327,32,32C440,329.673,425.673,344,408,344z"/>
	</g>
</g>
<g>
	<g>
		<path d="M288,368h-32c-2.122,0-4.156,0.844-5.656,2.344L240,380.688l-10.344-10.344c-1.5-1.5-3.534-2.344-5.656-2.344h-32
			c-13.255,0-24,10.745-24,24v64c0,13.255,10.745,24,24,24h96c13.255,0,24-10.745,24-24v-64C312,378.745,301.255,368,288,368z
			 M296,456c0,4.418-3.582,8-8,8h-96c-4.418,0-8-3.582-8-8v-64c0-4.418,3.582-8,8-8h28.688L232,395.312V416h16v-20.688L259.312,384
			H288c4.418,0,8,3.582,8,8V456z"/>
	</g>
</g>
<g>
</g>
<g>
</g>
<g>
</g>
<g>
</g>
<g>
</g>
<g>
</g>
<g>
</g>
<g>
</g>
<g>
</g>
<g>
</g>
<g>
</g>
<g>
</g>
<g>
</g>
<g>
</g>
<g>
</g>
</svg>
